#!OML:ASF E:\Style4\Style4.ASF
:FULLY-SPECIFIED
:DEGREES
3166
root -0.145938 17.6994 -0.528738 -4.15655 17.2787 2.62079
lowerback 10.4 3.4758 0.648832
upperback 8.10875 4.72898 0.0907333
thorax 2.68614 2.43355 -0.633481
lowerneck 6.8467 -4.30785 -3.23791
upperneck 2.02506 -5.92546 5.00563
head -0.267688 -3.02075 2.2508
rclavicle 9.41245e-014 -2.66371e-014
rhumerus 21.2906 8.50511 -75.6268
rradius 123.287
rwrist 16.8115
rhand 10.3657 0.0223248
rfingers 7.12502
rthumb 35.4731 -26.4219
lclavicle 9.41245e-014 -2.66371e-014
lhumerus 17.7119 -20.1678 73.8045
lradius 124.647
lwrist -8.62887
lhand 16.2824 35.5251
lfingers 7.12502
lthumb 41.0574 60.4233
rfemur -3.762 -8.23273 16.4368
rtibia 32.0688
rfoot -22.2789 -20.297
rtoes -7.82253
lfemur -8.53974 -3.88553 -21.2634
ltibia 29.9565
lfoot -15.5927 -0.851412
ltoes -14.9103
3167
root -0.148345 17.6915 -0.536465 -4.23302 17.3284 2.65056
lowerback 10.4821 3.45488 0.586657
upperback 8.17847 4.69795 0.0975282
thorax 2.70917 2.41613 -0.592314
lowerneck 7.00825 -4.28001 -3.3641
upperneck 2.04711 -5.90085 4.95014
head -0.287378 -3.01013 2.2594
rclavicle -6.10269e-014 1.03368e-014
rhumerus 21.6928 8.1872 -75.4968
rradius 122.296
rwrist 17.0244
rhand 10.4288 0.037992
rfingers 7.12502
rthumb 35.5329 -26.3919
lclavicle -6.10269e-014 1.03368e-014
lhumerus 18.4113 -20.1881 73.8435
lradius 125.155
lwrist -8.61871
lhand 15.7379 35.272
lfingers 7.12502
lthumb 40.5458 60.331
rfemur -3.80004 -8.26963 16.3936
rtibia 32.2871
rfoot -22.3927 -20.2953
rtoes -7.95031
lfemur -8.59643 -3.87763 -21.2945
ltibia 30.1546
lfoot -15.6463 -0.967082
ltoes -14.7198
3168
root -0.151215 17.6835 -0.543366 -4.35217 17.3967 2.56156
lowerback 10.5666 3.43325 0.639825
upperback 8.24708 4.67447 0.125797
thorax 2.7376 2.40696 -0.593416
lowerneck 7.14455 -4.29366 -3.44036
upperneck 2.04418 -5.92693 4.89918
head -0.309597 -3.02441 2.2611
rclavicle -8.94531e-015 7.95139e-016
rhumerus 21.9316 7.87617 -75.4742
rradius 121.347
rwrist 17.1773
rhand 10.8781 -0.111106
rfingers 7.12502
rthumb 35.9587 -26.4377
lclavicle -8.94531e-015 7.95139e-016
lhumerus 19.1964 -20.1782 73.7952
lradius 125.616
lwrist -8.72474
lhand 15.5846 34.9715
lfingers 7.12502
lthumb 40.4016 60.0751
rfemur -3.81561 -8.30086 16.4773
rtibia 32.4916
rfoot -22.5424 -20.2663
rtoes -7.79348
lfemur -8.62315 -3.89434 -21.2005
ltibia 30.3187
lfoot -15.6529 -1.03983
ltoes -14.8724
3169
root -0.154594 17.6767 -0.549269 -4.41655 17.4685 2.55712
lowerback 10.6111 3.424 0.606236
upperback 8.33216 4.66134 0.126423
thorax 2.80067 2.40017 -0.57244
lowerneck 7.12334 -4.32226 -3.45415
upperneck 2.1069 -5.96718 4.79349
head -0.286911 -3.04275 2.22763
rclavicle 7.55382e-015 -5.56597e-015
rhumerus 22.0351 7.65022 -75.5111
rradius 120.486
rwrist 17.1688
rhand 11.5614 -0.580896
rfingers 7.12502
rthumb 36.6058 -26.7463
lclavicle 7.55382e-015 -5.56597e-015
lhumerus 20.1653 -20.1823 73.6151
lradius 126.048
lwrist -8.94019
lhand 15.4425 34.8069
lfingers 7.12502
lthumb 40.268 59.9515
rfemur -3.85474 -8.32134 16.4877
rtibia 32.6697
rfoot -22.6133 -20.3412
rtoes -7.74159
lfemur -8.64434 -3.91738 -21.1953
ltibia 30.4269
lfoot -15.6435 -1.05778
ltoes -14.9973
3170
root -0.157077 17.672 -0.552974 -4.37978 17.5781 2.70624
lowerback 10.6153 3.41795 0.430157
upperback 8.38864 4.64193 0.0806472
thorax 2.8478 2.38474 -0.518679
lowerneck 7.08039 -4.32818 -3.49655
upperneck 2.11948 -5.97789 4.71039
head -0.27632 -3.047 2.20651
rclavicle 5.96354e-016 4.77083e-015
rhumerus 21.9384 7.4459 -75.5815
rradius 119.607
rwrist 17.1803
rhand 12.4065 -0.90907
rfingers 7.12502
rthumb 37.4051 -26.8677
lclavicle 5.96354e-016 4.77083e-015
lhumerus 21.1496 -20.1993 73.3973
lradius 126.519
lwrist -9.12291
lhand 14.9941 34.7056
lfingers 7.12502
lthumb 39.8461 59.9779
rfemur -3.92221 -8.38731 16.3249
rtibia 32.8214
rfoot -22.7064 -20.3246
rtoes -7.57342
lfemur -8.70285 -3.97689 -21.3536
ltibia 30.4825
lfoot -15.6247 -1.10704
ltoes -14.6897
3171
root -0.159545 17.6699 -0.553829 -4.31933 17.6573 2.82939
lowerback 10.6119 3.40105 0.221053
upperback 8.39689 4.60462 0.0464618
thorax 2.84406 2.35773 -0.434992
lowerneck 6.97746 -4.29586 -3.49203
upperneck 2.18348 -5.93432 4.59726
head -0.243985 -3.02276 2.16355
rclavicle -1.70955e-014 3.57812e-015
rhumerus 21.5939 7.37052 -75.7922
rradius 118.669
rwrist 17.4077
rhand 13.1138 -0.665482
rfingers 7.12502
rthumb 38.0733 -26.4447
lclavicle -1.70955e-014 3.57812e-015
lhumerus 21.9727 -20.0464 73.2904
lradius 127.064
lwrist -9.01175
lhand 14.5461 34.7209
lfingers 7.12502
lthumb 39.4242 60.1181
rfemur -3.9984 -8.41575 16.2011
rtibia 32.9314
rfoot -22.7486 -20.3512
rtoes -7.70274
lfemur -8.75393 -3.98093 -21.4763
ltibia 30.5001
lfoot -15.5985 -1.22724
ltoes -14.2833
3172
root -0.162112 17.6693 -0.555446 -4.32321 17.7205 2.8617
lowerback 10.6775 3.41423 0.147717
upperback 8.39079 4.6167 0.0360033
thorax 2.79734 2.36094 -0.410847
lowerneck 6.98366 -4.31986 -3.52649
upperneck 2.18092 -5.96884 4.54898
head -0.244697 -3.0398 2.15467
rclavicle 4.31363e-014 -9.54166e-015
rhumerus 21.0023 7.3096 -76.0267
rradius 117.835
rwrist 17.7871
rhand 13.6254 -0.488601
rfingers 7.12502
rthumb 38.5562 -26.1343
lclavicle 4.31363e-014 -9.54166e-015
lhumerus 22.7348 -19.799 73.3344
lradius 127.545
lwrist -8.85123
lhand 14.4645 34.5131
lfingers 7.12502
lthumb 39.3473 59.9327
rfemur -4.02619 -8.45506 16.1673
rtibia 33.0203
rfoot -22.769 -20.3691
rtoes -7.82589
lfemur -8.73911 -4.00054 -21.5087
ltibia 30.4811
lfoot -15.5987 -1.25215
ltoes -14.5619
3173
root -0.164667 17.67 -0.556416 -4.35884 17.7327 2.80399
lowerback 10.7401 3.49099 0.242219
upperback 8.34612 4.7251 0.0302625
thorax 2.72548 2.41953 -0.483702
lowerneck 7.11136 -4.40607 -3.61284
upperneck 2.19711 -6.09247 4.5991
head -0.251704 -3.10356 2.19193
rclavicle 1.25234e-014 -1.31198e-014
rhumerus 20.1523 7.16871 -76.2274
rradius 117.119
rwrist 18.1947
rhand 14.119 -0.657628
rfingers 7.12502
rthumb 39.0217 -26.1714
lclavicle 1.25234e-014 -1.31198e-014
lhumerus 23.4652 -19.6938 73.3999
lradius 127.828
lwrist -8.93646
lhand 14.3882 33.9911
lfingers 7.12502
lthumb 39.2755 59.4317
rfemur -4.03347 -8.44613 16.2418
rtibia 33.0652
rfoot -22.7171 -20.4717
rtoes -8.06639
lfemur -8.72138 -3.97224 -21.4382
ltibia 30.4524
lfoot -15.5929 -1.21868
ltoes -15.2278
3174
root -0.166448 17.6713 -0.557319 -4.28941 17.7552 2.86627
lowerback 10.737 3.53351 0.189422
upperback 8.29094 4.77686 0.00431584
thorax 2.66733 2.44339 -0.487683
lowerneck 7.11927 -4.41923 -3.80577
upperneck 2.24652 -6.12586 4.71526
head -0.226802 -3.12259 2.26393
rclavicle 1.78906e-014 -2.34566e-014
rhumerus 19.3026 7.0778 -76.4312
rradius 116.514
rwrist 18.5592
rhand 14.9733 -0.793932
rfingers 7.12502
rthumb 39.8265 -26.0721
lclavicle 1.78906e-014 -2.34566e-014
lhumerus 24.1157 -19.5824 73.4362
lradius 128.041
lwrist -9.10231
lhand 13.7415 33.624
lfingers 7.12502
lthumb 38.6657 59.239
rfemur -4.1149 -8.44268 16.1858
rtibia 33.1077
rfoot -22.7484 -20.4669
rtoes -7.80433
lfemur -8.75217 -4.0142 -21.4978
ltibia 30.4014
lfoot -15.5823 -1.15211
ltoes -15.1573
3175
root -0.171122 17.6727 -0.556954 -4.22089 17.7905 2.92015
lowerback 10.7415 3.5438 0.0782454
upperback 8.28082 4.78184 -0.0044273
thorax 2.64586 2.44118 -0.436527
lowerneck 6.9777 -4.38905 -4.02852
upperneck 2.22297 -6.09913 4.83817
head -0.201236 -3.11095 2.33949
rclavicle -2.38542e-015 -1.43125e-014
rhumerus 18.4545 7.06012 -76.6542
rradius 116.117
rwrist 19.1081
rhand 15.945 -0.928191
rfingers 7.12502
rthumb 40.7404 -25.9265
lclavicle -2.38542e-015 -1.43125e-014
lhumerus 24.7872 -19.3502 73.4253
lradius 128.222
lwrist -9.10822
lhand 12.828 33.5341
lfingers 7.12502
lthumb 37.8034 59.3865
rfemur -4.1888 -8.37932 16.1653
rtibia 33.1496
rfoot -22.8779 -20.4385
rtoes -7.53565
lfemur -8.76876 -4.02814 -21.5338
ltibia 30.3214
lfoot -15.5751 -1.16101
ltoes -14.8978
3176
root -0.177422 17.6746 -0.557441 -4.11593 17.8299 2.97665
lowerback 10.7434 3.63256 0.0726005
upperback 8.28465 4.90058 -0.100239
thorax 2.65862 2.5035 -0.541558
lowerneck 6.8045 -4.4756 -3.94209
upperneck 2.08114 -6.20067 4.91116
head -0.211959 -3.16082 2.34659
rclavicle -7.45443e-015 -2.38542e-015
rhumerus 17.4421 6.86002 -76.9367
rradius 115.996
rwrist 19.77
rhand 16.5199 -1.18304
rfingers 7.12502
rthumb 41.2803 -26.0097
lclavicle -7.45443e-015 -2.38542e-015
lhumerus 25.638 -19.3202 73.2806
lradius 128.371
lwrist -8.99728
lhand 11.9805 33.4374
lfingers 7.12502
lthumb 37.0022 59.5013
rfemur -4.31709 -8.35619 16.1486
rtibia 33.2093
rfoot -22.9488 -20.4528
rtoes -7.47389
lfemur -8.81833 -4.05981 -21.5747
ltibia 30.2179
lfoot -15.5217 -1.15728
ltoes -14.9075
3177
root -0.181451 17.6787 -0.558041 -3.98598 17.903 3.10386
lowerback 10.7472 3.66593 -0.0512161
upperback 8.25991 4.93575 -0.166467
thorax 2.62645 2.51751 -0.545724
lowerneck 6.71364 -4.4881 -3.95437
upperneck 1.93323 -6.21287 4.94294
head -0.241306 -3.16727 2.35941
rclavicle 7.69297e-014 -2.06736e-014
rhumerus 16.3038 6.90865 -77.1952
rradius 116.099
rwrist 20.1333
rhand 16.8109 -1.45745
rfingers 7.12502
rthumb 41.5534 -26.1954
lclavicle 7.69297e-014 -2.06736e-014
lhumerus 26.2951 -19.2221 73.1359
lradius 128.442
lwrist -9.05361
lhand 10.842 33.0916
lfingers 7.12502
lthumb 35.9245 59.4266
rfemur -4.4315 -8.39535 16.0394
rtibia 33.2466
rfoot -22.9322 -20.5141
rtoes -7.56289
lfemur -8.88058 -4.16404 -21.7048
ltibia 30.1289
lfoot -15.4629 -1.14435
ltoes -14.702
3178
root -0.18544 17.6802 -0.557925 -3.88632 17.9745 3.19813
lowerback 10.8011 3.69748 -0.161385
upperback 8.22283 4.96844 -0.203713
thorax 2.55256 2.53005 -0.531573
lowerneck 6.59145 -4.51128 -4.01816
upperneck 1.80811 -6.24268 4.99674
head -0.254981 -3.18259 2.3874
rclavicle 2.82274e-014 -5.1684e-015
rhumerus 15.0522 6.99353 -77.4607
rradius 116.466
rwrist 20.0611
rhand 17.0667 -1.60092
rfingers 7.12502
rthumb 41.7933 -26.2598
lclavicle 2.82274e-014 -5.1684e-015
lhumerus 26.8542 -19.1583 73.0606
lradius 128.335
lwrist -9.20309
lhand 9.6295 32.6053
lfingers 7.12502
lthumb 34.7749 59.2137
rfemur -4.507 -8.44533 15.9616
rtibia 33.257
rfoot -22.9143 -20.5358
rtoes -7.59619
lfemur -8.9318 -4.24318 -21.7937
ltibia 30.074
lfoot -15.4294 -1.09365
ltoes -15.0759
